<mxfile host="app.diagrams.net" agent="Mozilla/5.0 (Macintosh; Intel Mac OS X 10_15_7) AppleWebKit/537.36 (KHTML, like Gecko) Chrome/134.0.0.0 Safari/537.36" version="26.0.16">
  <diagram name="第 1 页" id="0Iwd58yqNyENThm467XT">
    <mxGraphModel dx="1352" dy="927" grid="1" gridSize="10" guides="1" tooltips="1" connect="1" arrows="1" fold="1" page="1" pageScale="1" pageWidth="827" pageHeight="1169" math="0" shadow="0">
      <root>
        <mxCell id="0" />
        <mxCell id="1" parent="0" />
        <mxCell id="vWY_kb8jXAwoM2cGScSt-5" style="edgeStyle=orthogonalEdgeStyle;rounded=0;orthogonalLoop=1;jettySize=auto;html=1;exitX=0.5;exitY=1;exitDx=0;exitDy=0;" edge="1" parent="1" source="vWY_kb8jXAwoM2cGScSt-1" target="vWY_kb8jXAwoM2cGScSt-4">
          <mxGeometry relative="1" as="geometry" />
        </mxCell>
        <mxCell id="vWY_kb8jXAwoM2cGScSt-1" value="输入链接批量转链" style="rounded=1;whiteSpace=wrap;html=1;" vertex="1" parent="1">
          <mxGeometry x="340" y="120" width="120" height="60" as="geometry" />
        </mxCell>
        <mxCell id="vWY_kb8jXAwoM2cGScSt-3" style="edgeStyle=orthogonalEdgeStyle;rounded=0;orthogonalLoop=1;jettySize=auto;html=1;exitX=0.5;exitY=1;exitDx=0;exitDy=0;exitPerimeter=0;entryX=0.5;entryY=0;entryDx=0;entryDy=0;" edge="1" parent="1" source="vWY_kb8jXAwoM2cGScSt-2" target="vWY_kb8jXAwoM2cGScSt-1">
          <mxGeometry relative="1" as="geometry" />
        </mxCell>
        <mxCell id="vWY_kb8jXAwoM2cGScSt-2" value="" style="strokeWidth=2;html=1;shape=mxgraph.flowchart.start_1;whiteSpace=wrap;" vertex="1" parent="1">
          <mxGeometry x="370" y="10" width="60" height="60" as="geometry" />
        </mxCell>
        <mxCell id="vWY_kb8jXAwoM2cGScSt-7" value="" style="edgeStyle=orthogonalEdgeStyle;rounded=0;orthogonalLoop=1;jettySize=auto;html=1;" edge="1" parent="1" source="vWY_kb8jXAwoM2cGScSt-4" target="vWY_kb8jXAwoM2cGScSt-6">
          <mxGeometry relative="1" as="geometry" />
        </mxCell>
        <mxCell id="vWY_kb8jXAwoM2cGScSt-8" value="没有" style="edgeLabel;html=1;align=center;verticalAlign=middle;resizable=0;points=[];" vertex="1" connectable="0" parent="vWY_kb8jXAwoM2cGScSt-7">
          <mxGeometry x="-0.1497" y="-2" relative="1" as="geometry">
            <mxPoint as="offset" />
          </mxGeometry>
        </mxCell>
        <mxCell id="vWY_kb8jXAwoM2cGScSt-10" value="" style="edgeStyle=orthogonalEdgeStyle;rounded=0;orthogonalLoop=1;jettySize=auto;html=1;" edge="1" parent="1" source="vWY_kb8jXAwoM2cGScSt-4" target="vWY_kb8jXAwoM2cGScSt-9">
          <mxGeometry relative="1" as="geometry" />
        </mxCell>
        <mxCell id="vWY_kb8jXAwoM2cGScSt-4" value="长链是否含有加密h5地址" style="rhombus;whiteSpace=wrap;html=1;" vertex="1" parent="1">
          <mxGeometry x="360" y="230" width="80" height="80" as="geometry" />
        </mxCell>
        <mxCell id="vWY_kb8jXAwoM2cGScSt-21" value="" style="edgeStyle=orthogonalEdgeStyle;rounded=0;orthogonalLoop=1;jettySize=auto;html=1;" edge="1" parent="1" source="vWY_kb8jXAwoM2cGScSt-6" target="vWY_kb8jXAwoM2cGScSt-20">
          <mxGeometry relative="1" as="geometry" />
        </mxCell>
        <mxCell id="vWY_kb8jXAwoM2cGScSt-6" value="转链" style="whiteSpace=wrap;html=1;" vertex="1" parent="1">
          <mxGeometry x="340" y="390" width="120" height="60" as="geometry" />
        </mxCell>
        <mxCell id="vWY_kb8jXAwoM2cGScSt-12" value="" style="edgeStyle=orthogonalEdgeStyle;rounded=0;orthogonalLoop=1;jettySize=auto;html=1;" edge="1" parent="1" source="vWY_kb8jXAwoM2cGScSt-9" target="vWY_kb8jXAwoM2cGScSt-11">
          <mxGeometry relative="1" as="geometry" />
        </mxCell>
        <mxCell id="vWY_kb8jXAwoM2cGScSt-9" value="对称解密" style="whiteSpace=wrap;html=1;" vertex="1" parent="1">
          <mxGeometry x="500" y="240" width="120" height="60" as="geometry" />
        </mxCell>
        <mxCell id="vWY_kb8jXAwoM2cGScSt-14" value="" style="edgeStyle=orthogonalEdgeStyle;rounded=0;orthogonalLoop=1;jettySize=auto;html=1;" edge="1" parent="1" source="vWY_kb8jXAwoM2cGScSt-11" target="vWY_kb8jXAwoM2cGScSt-13">
          <mxGeometry relative="1" as="geometry" />
        </mxCell>
        <mxCell id="vWY_kb8jXAwoM2cGScSt-18" value="否" style="edgeLabel;html=1;align=center;verticalAlign=middle;resizable=0;points=[];" vertex="1" connectable="0" parent="vWY_kb8jXAwoM2cGScSt-14">
          <mxGeometry x="-0.3497" y="2" relative="1" as="geometry">
            <mxPoint as="offset" />
          </mxGeometry>
        </mxCell>
        <mxCell id="vWY_kb8jXAwoM2cGScSt-16" value="" style="edgeStyle=orthogonalEdgeStyle;rounded=0;orthogonalLoop=1;jettySize=auto;html=1;" edge="1" parent="1" source="vWY_kb8jXAwoM2cGScSt-11" target="vWY_kb8jXAwoM2cGScSt-15">
          <mxGeometry relative="1" as="geometry" />
        </mxCell>
        <mxCell id="vWY_kb8jXAwoM2cGScSt-19" value="是" style="edgeLabel;html=1;align=center;verticalAlign=middle;resizable=0;points=[];" vertex="1" connectable="0" parent="vWY_kb8jXAwoM2cGScSt-16">
          <mxGeometry x="-0.3935" y="-2" relative="1" as="geometry">
            <mxPoint as="offset" />
          </mxGeometry>
        </mxCell>
        <mxCell id="vWY_kb8jXAwoM2cGScSt-11" value="解密是否成功？" style="rhombus;whiteSpace=wrap;html=1;" vertex="1" parent="1">
          <mxGeometry x="720" y="230" width="80" height="80" as="geometry" />
        </mxCell>
        <mxCell id="vWY_kb8jXAwoM2cGScSt-13" value="返回转链失败" style="whiteSpace=wrap;html=1;" vertex="1" parent="1">
          <mxGeometry x="860" y="240" width="120" height="60" as="geometry" />
        </mxCell>
        <mxCell id="vWY_kb8jXAwoM2cGScSt-17" style="edgeStyle=orthogonalEdgeStyle;rounded=0;orthogonalLoop=1;jettySize=auto;html=1;exitX=0;exitY=0.5;exitDx=0;exitDy=0;" edge="1" parent="1" source="vWY_kb8jXAwoM2cGScSt-15" target="vWY_kb8jXAwoM2cGScSt-6">
          <mxGeometry relative="1" as="geometry" />
        </mxCell>
        <mxCell id="vWY_kb8jXAwoM2cGScSt-15" value="提取链接" style="whiteSpace=wrap;html=1;" vertex="1" parent="1">
          <mxGeometry x="700" y="390" width="120" height="60" as="geometry" />
        </mxCell>
        <mxCell id="vWY_kb8jXAwoM2cGScSt-23" value="" style="edgeStyle=orthogonalEdgeStyle;rounded=0;orthogonalLoop=1;jettySize=auto;html=1;" edge="1" parent="1" source="vWY_kb8jXAwoM2cGScSt-20" target="vWY_kb8jXAwoM2cGScSt-22">
          <mxGeometry relative="1" as="geometry" />
        </mxCell>
        <mxCell id="vWY_kb8jXAwoM2cGScSt-20" value="对称加密" style="whiteSpace=wrap;html=1;" vertex="1" parent="1">
          <mxGeometry x="340" y="530" width="120" height="60" as="geometry" />
        </mxCell>
        <mxCell id="vWY_kb8jXAwoM2cGScSt-25" style="edgeStyle=orthogonalEdgeStyle;rounded=0;orthogonalLoop=1;jettySize=auto;html=1;exitX=0.5;exitY=1;exitDx=0;exitDy=0;entryX=0.5;entryY=0;entryDx=0;entryDy=0;" edge="1" parent="1" source="vWY_kb8jXAwoM2cGScSt-22" target="vWY_kb8jXAwoM2cGScSt-24">
          <mxGeometry relative="1" as="geometry" />
        </mxCell>
        <mxCell id="vWY_kb8jXAwoM2cGScSt-22" value="返回" style="whiteSpace=wrap;html=1;" vertex="1" parent="1">
          <mxGeometry x="340" y="670" width="120" height="60" as="geometry" />
        </mxCell>
        <mxCell id="vWY_kb8jXAwoM2cGScSt-24" value="" style="ellipse;html=1;shape=endState;fillColor=#000000;strokeColor=#ff0000;" vertex="1" parent="1">
          <mxGeometry x="372.5" y="780" width="55" height="50" as="geometry" />
        </mxCell>
      </root>
    </mxGraphModel>
  </diagram>
</mxfile>
